<?xml version="1.0" encoding="UTF-8"?>
<svg xmlns="http://www.w3.org/2000/svg" version="1.1" viewBox="0 0 380 613.3">
  <defs>
    <style>
      .cls-1 {
        fill: #111224;
      }

      .cls-1, .cls-2, .cls-3 {
        stroke-width: 0px;
      }

      .cls-2 {
        fill: #ea4547;
      }

      .cls-3 {
        fill: #fefefe;
      }
    </style>
  </defs>
  <g id="Layer_2" data-name="Layer 2">
    <path class="cls-3" d="M61,285.3c0-83.1.2-90.2-.2-173.4,0-15.7,11.2-28,28-27.9,67.6.5,135.3.2,202.9.2,17.3,0,27.2,9.9,27.2,27.3,0,166.4,0,256.8,0,423.3,0,17.2-10.2,27.3-27.4,27.3-67.8,0-135.6,0-203.4,0-17.2,0-27.2-10.1-27.2-27.4,0-83.1,0-166.3,0-249.4ZM190.5,466.1c-39.2,0-78.3,0-117.5-.1-4.3,0-5.2,1.3-5.1,5.3.2,19.8,0,39.7.1,59.5,0,15.6,9.7,25.3,25.2,25.3,64.5,0,129,0,193.5,0,15.5,0,25.2-9.8,25.3-25.3,0-19.8-.2-39.7.1-59.5,0-4.7-1.5-5.3-5.6-5.3-38.7.2-77.3,0-116,0Z"/>
  </g>
  <g id="Layer_1" data-name="Layer 1">
    <path class="cls-1" d="M34.9,285.2c0-83.3,0-90.5,0-173.8,0-31.7,21.5-53.2,53.4-53.2,11.5,0,23-.2,34.5.1,3.9,0,4.8-1.1,4.6-4.8-.3-7.2-.2-14.3,0-21.5.1-9.7,6-15.6,15.6-15.6,31.3,0,62.6,0,94,0,9.5,0,15.3,5.7,15.6,15.1.2,7.5.2,15,0,22.5,0,3.3.9,4.2,4.2,4.2,12.2-.2,24.3-.1,36.5,0,29.7.1,51.8,22.1,51.8,51.8,0,167.4,0,258.8,0,426.2,0,29.9-22.1,52-52.1,52-68.6,0-137.3,0-205.9,0-30,0-52-22.1-52.1-52.1,0-83.6,0-167.3,0-250.9ZM61,285.3c0,83.1,0,166.3,0,249.4,0,17.3,10,27.4,27.2,27.4,67.8,0,135.6,0,203.4,0,17.2,0,27.4-10.1,27.4-27.3,0-166.4,0-256.8,0-423.3,0-17.4-9.9-27.3-27.2-27.3-67.6,0-135.3.3-202.9-.2-16.8-.1-28.1,12.2-28,27.9.4,83.1.2,90.2.2,173.4Z"/>
    <path class="cls-2" d="M190.5,512.7"/>
    <path class="cls-2" d="M209.8,166.8c-3.2,30.4-6.4,60.9-9.6,91.3-.1,1.3,0,2.7-.3,4-.5,2.9.6,3.7,3.5,3.7,11-.2,22,0,33,0,1.1,0,2.2.1,4.1.3-21.4,42-42.6,83.6-63.8,125.2h-.8c1-8.4,1.9-16.6,2.9-24.9,2.7-22.6,5.5-45.3,8.3-67.9.4-3.3-.7-3.9-3.7-3.8-12.9.1-25.9,0-39.7,0,22-43.1,43.7-85.6,65.4-128.2.3.1.6.2.9.4Z"/>
    <rect class="cls-2" x="75" y="519.7" width="229.9" height="30.8" rx="5.3" ry="5.3"/>
    <rect class="cls-2" x="75" y="481.9" width="229.9" height="30.8" rx="5.3" ry="5.3"/>
    <rect class="cls-2" x="75" y="444.1" width="229.9" height="30.8" rx="5.3" ry="5.3"/>
  </g>
</svg>